<svg width="35" height="35" viewBox="0 0 35 35" fill="none" xmlns="http://www.w3.org/2000/svg">
<path d="M22.9102 18.5354C24.34 17.4105 25.3835 15.868 25.8958 14.1224C26.408 12.3768 26.3634 10.5149 25.7683 8.79587C25.1731 7.07679 24.0569 5.58597 22.5749 4.53081C21.093 3.47565 19.319 2.90863 17.4998 2.90863C15.6806 2.90863 13.9066 3.47565 12.4247 4.53081C10.9428 5.58597 9.82657 7.07679 9.23137 8.79587C8.63618 10.5149 8.5916 12.3768 9.10384 14.1224C9.61608 15.868 10.6597 17.4105 12.0894 18.5354C9.63951 19.5169 7.5019 21.1449 5.90445 23.2457C4.307 25.3465 3.30959 27.8415 3.01856 30.4646C2.9975 30.6561 3.01436 30.8499 3.06818 31.0349C3.12201 31.2198 3.21174 31.3924 3.33227 31.5427C3.57567 31.8463 3.9297 32.0408 4.31648 32.0833C4.70325 32.1259 5.09109 32.013 5.39466 31.7696C5.69824 31.5262 5.89268 31.1722 5.93523 30.7854C6.25546 27.9346 7.61477 25.3018 9.75347 23.3899C11.8922 21.478 14.6603 20.4211 17.529 20.4211C20.3977 20.4211 23.1658 21.478 25.3045 23.3899C27.4432 25.3018 28.8025 27.9346 29.1227 30.7854C29.1624 31.1437 29.3334 31.4747 29.6027 31.7144C29.872 31.9541 30.2205 32.0855 30.5811 32.0833H30.7415C31.1238 32.0393 31.4732 31.846 31.7135 31.5455C31.9539 31.2451 32.0658 30.8618 32.0248 30.4791C31.7324 27.8486 30.7296 25.3472 29.124 23.2432C27.5183 21.1391 25.3703 19.5117 22.9102 18.5354ZM17.4998 17.5C16.3461 17.5 15.2183 17.1579 14.259 16.5169C13.2997 15.8759 12.552 14.9649 12.1105 13.899C11.669 12.8331 11.5535 11.6602 11.7786 10.5286C12.0036 9.39706 12.5592 8.35766 13.375 7.54185C14.1908 6.72605 15.2302 6.17048 16.3618 5.9454C17.4933 5.72032 18.6662 5.83584 19.7321 6.27735C20.798 6.71886 21.7091 7.46653 22.3501 8.42582C22.991 9.38511 23.3331 10.5129 23.3331 11.6666C23.3331 13.2137 22.7186 14.6975 21.6246 15.7914C20.5306 16.8854 19.0469 17.5 17.4998 17.5Z" fill="black"/>
</svg>
