<svg width="35" height="35" viewBox="0 0 35 35" fill="none" xmlns="http://www.w3.org/2000/svg">
<path d="M17.5002 24.7917C18.2737 24.7917 19.0156 24.4844 19.5626 23.9374C20.1095 23.3905 20.4168 22.6486 20.4168 21.875C20.4168 21.1015 20.1095 20.3596 19.5626 19.8126C19.0156 19.2657 18.2737 18.9584 17.5002 18.9584C16.7266 18.9584 15.9847 19.2657 15.4378 19.8126C14.8908 20.3596 14.5835 21.1015 14.5835 21.875C14.5835 22.6486 14.8908 23.3905 15.4378 23.9374C15.9847 24.4844 16.7266 24.7917 17.5002 24.7917ZM26.2502 11.6667C27.0237 11.6667 27.7656 11.974 28.3126 12.521C28.8595 13.068 29.1668 13.8098 29.1668 14.5834V29.1667C29.1668 29.9403 28.8595 30.6821 28.3126 31.2291C27.7656 31.7761 27.0237 32.0834 26.2502 32.0834H8.75016C7.97661 32.0834 7.23475 31.7761 6.68777 31.2291C6.14079 30.6821 5.8335 29.9403 5.8335 29.1667V14.5834C5.8335 13.8098 6.14079 13.068 6.68777 12.521C7.23475 11.974 7.97661 11.6667 8.75016 11.6667H10.2085V8.75004C10.2085 6.81617 10.9767 4.96151 12.3442 3.59405C13.7116 2.2266 15.5663 1.45837 17.5002 1.45837C18.4577 1.45837 19.4059 1.64698 20.2906 2.01342C21.1752 2.37986 21.9791 2.91696 22.6562 3.59405C23.3332 4.27115 23.8703 5.07497 24.2368 5.95964C24.6032 6.84431 24.7918 7.79249 24.7918 8.75004V11.6667H26.2502ZM17.5002 4.37504C16.3398 4.37504 15.227 4.83598 14.4066 5.65645C13.5861 6.47692 13.1252 7.58972 13.1252 8.75004V11.6667H21.8752V8.75004C21.8752 7.58972 21.4142 6.47692 20.5938 5.65645C19.7733 4.83598 18.6605 4.37504 17.5002 4.37504Z" fill="black" fill-opacity="0.8"/>
</svg>
